<?xml version="1.0" encoding="UTF-8" standalone="no"?>
<!DOCTYPE svg PUBLIC "-//W3C//DTD SVG 1.1//EN" "http://www.w3.org/Graphics/SVG/1.1/DTD/svg11.dtd">
<svg width="100%" height="100%" viewBox="0 0 1280 880" version="1.1" xmlns="http://www.w3.org/2000/svg" xmlns:xlink="http://www.w3.org/1999/xlink" xml:space="preserve" xmlns:serif="http://www.serif.com/" style="fill-rule:evenodd;clip-rule:evenodd;">
    <g transform="matrix(0.882804,0,0,0.882804,86.2523,-63.4938)">
        <g transform="matrix(6.73384,0,0,6.73384,-6449.24,-11913.9)">
            <path d="M974.466,1879.01C974.597,1879.78 974.873,1880.46 975.296,1881.07C975.72,1881.68 976.253,1882.2 976.896,1882.64C977.539,1883.07 978.275,1883.4 979.105,1883.64C979.935,1883.87 980.83,1883.99 981.791,1883.99C982.783,1883.99 983.691,1883.88 984.513,1883.66C985.335,1883.44 986.039,1883.13 986.625,1882.72C987.211,1882.32 987.666,1881.83 987.992,1881.26C988.317,1880.69 988.48,1880.06 988.48,1879.38C988.48,1878.87 988.382,1878.41 988.187,1877.99C987.992,1877.56 987.687,1877.17 987.272,1876.8C986.857,1876.43 986.311,1876.09 985.636,1875.78C984.96,1875.46 984.151,1875.15 983.207,1874.86L979.545,1873.71C978.242,1873.31 977.083,1872.79 976.066,1872.16C975.048,1871.54 974.194,1870.82 973.502,1870C972.81,1869.19 972.281,1868.29 971.915,1867.29C971.549,1866.3 971.366,1865.23 971.366,1864.09C971.366,1862.48 971.716,1860.99 972.416,1859.63C973.116,1858.26 974.084,1857.08 975.321,1856.1C976.558,1855.11 978.023,1854.34 979.715,1853.78C981.408,1853.22 983.247,1852.94 985.233,1852.94C987.17,1852.94 988.948,1853.2 990.567,1853.74C992.187,1854.28 993.583,1855.03 994.755,1855.99C995.926,1856.95 996.854,1858.1 997.538,1859.43C998.221,1860.77 998.588,1862.24 998.636,1863.85L991.678,1863.85C991.564,1863.12 991.32,1862.45 990.946,1861.84C990.572,1861.23 990.091,1860.7 989.505,1860.27C988.92,1859.84 988.24,1859.51 987.467,1859.27C986.694,1859.04 985.852,1858.92 984.94,1858.92C984.077,1858.92 983.276,1859.02 982.535,1859.24C981.795,1859.45 981.152,1859.74 980.607,1860.13C980.061,1860.51 979.634,1860.97 979.325,1861.49C979.016,1862.02 978.861,1862.6 978.861,1863.22C978.861,1864.19 979.231,1865.05 979.972,1865.78C980.712,1866.51 981.921,1867.14 983.597,1867.66L987.211,1868.78C988.708,1869.25 990.002,1869.79 991.092,1870.4C992.183,1871.02 993.086,1871.71 993.802,1872.49C994.519,1873.27 995.047,1874.15 995.389,1875.12C995.731,1876.09 995.902,1877.16 995.902,1878.35C995.902,1880.09 995.548,1881.68 994.84,1883.11C994.132,1884.55 993.135,1885.77 991.849,1886.79C990.563,1887.8 989.021,1888.59 987.223,1889.14C985.424,1889.7 983.435,1889.97 981.254,1889.97C979.252,1889.97 977.421,1889.72 975.76,1889.22C974.1,1888.71 972.664,1887.99 971.451,1887.06C970.239,1886.12 969.278,1884.97 968.57,1883.61C967.862,1882.25 967.451,1880.72 967.338,1879.01L974.466,1879.01Z" style="fill:rgb(49,109,230);fill-rule:nonzero;"/>
            <path d="M975.634,1878.81L975.466,1877.83L966.071,1877.83L966.156,1879.09C966.281,1880.97 966.74,1882.66 967.52,1884.16C968.308,1885.67 969.378,1886.95 970.728,1887.99C972.048,1889.01 973.609,1889.8 975.416,1890.35C977.18,1890.88 979.126,1891.16 981.254,1891.16C983.562,1891.16 985.667,1890.86 987.571,1890.28C989.521,1889.67 991.19,1888.82 992.584,1887.72C994.011,1886.59 995.116,1885.23 995.902,1883.64C996.688,1882.05 997.086,1880.29 997.086,1878.35C997.086,1877.02 996.89,1875.81 996.506,1874.72C996.112,1873.6 995.502,1872.59 994.675,1871.69C993.881,1870.83 992.881,1870.05 991.671,1869.37C990.518,1868.73 989.15,1868.15 987.567,1867.65L983.949,1866.53C982.502,1866.08 981.444,1865.57 980.805,1864.94C980.306,1864.44 980.045,1863.87 980.045,1863.22C980.045,1862.81 980.146,1862.44 980.347,1862.09C980.573,1861.7 980.889,1861.38 981.287,1861.1C981.731,1860.78 982.257,1860.55 982.861,1860.37C983.501,1860.19 984.194,1860.1 984.94,1860.1C985.727,1860.1 986.454,1860.2 987.121,1860.4C987.758,1860.6 988.32,1860.87 988.803,1861.23C989.264,1861.57 989.642,1861.98 989.936,1862.45C990.229,1862.93 990.419,1863.46 990.508,1864.03L990.664,1865.03L999.857,1865.03L999.82,1863.81C999.766,1862.02 999.354,1860.38 998.592,1858.89C997.834,1857.41 996.805,1856.14 995.505,1855.07C994.227,1854.03 992.707,1853.2 990.94,1852.62C989.208,1852.04 987.305,1851.75 985.233,1851.75C983.113,1851.75 981.15,1852.06 979.343,1852.65C977.509,1853.26 975.923,1854.11 974.583,1855.17C973.211,1856.26 972.138,1857.57 971.361,1859.09C970.577,1860.62 970.181,1862.29 970.181,1864.09C970.181,1865.38 970.391,1866.58 970.804,1867.7C971.218,1868.83 971.817,1869.85 972.6,1870.77C973.368,1871.67 974.315,1872.48 975.444,1873.17C976.54,1873.85 977.789,1874.4 979.191,1874.84C979.19,1874.84 982.854,1875.99 982.854,1875.99C983.74,1876.27 984.499,1876.55 985.132,1876.85C985.69,1877.11 986.145,1877.39 986.488,1877.69C986.768,1877.94 986.98,1878.2 987.112,1878.48C987.237,1878.75 987.296,1879.05 987.296,1879.38C987.296,1879.85 987.187,1880.28 986.963,1880.67C986.723,1881.09 986.382,1881.45 985.949,1881.75C985.466,1882.08 984.884,1882.34 984.207,1882.52C983.477,1882.71 982.672,1882.81 981.791,1882.81C980.946,1882.81 980.159,1882.7 979.429,1882.5C978.726,1882.3 978.1,1882.02 977.555,1881.65C977.039,1881.31 976.61,1880.89 976.27,1880.4C975.945,1879.93 975.734,1879.4 975.634,1878.81ZM973.545,1880.19C973.731,1880.75 973.991,1881.27 974.323,1881.75C974.83,1882.48 975.466,1883.1 976.236,1883.62C976.977,1884.12 977.824,1884.5 978.781,1884.78C979.711,1885.04 980.714,1885.18 981.791,1885.18C982.895,1885.18 983.904,1885.05 984.819,1884.81C985.786,1884.55 986.611,1884.17 987.3,1883.69C988.039,1883.18 988.61,1882.56 989.02,1881.84C989.448,1881.1 989.665,1880.27 989.665,1879.38C989.665,1878.69 989.528,1878.06 989.263,1877.49C989.003,1876.93 988.606,1876.4 988.055,1875.91C987.568,1875.48 986.932,1875.08 986.14,1874.7C985.422,1874.37 984.563,1874.04 983.56,1873.73L979.898,1872.58C978.696,1872.21 977.625,1871.73 976.687,1871.15C975.782,1870.6 975.02,1869.96 974.405,1869.24C973.804,1868.53 973.344,1867.74 973.026,1866.88C972.707,1866.02 972.55,1865.09 972.55,1864.09C972.55,1862.68 972.855,1861.37 973.47,1860.17C974.093,1858.95 974.957,1857.9 976.059,1857.03C977.192,1856.12 978.537,1855.42 980.088,1854.9C981.667,1854.38 983.382,1854.12 985.233,1854.12C987.034,1854.12 988.689,1854.37 990.195,1854.87C991.667,1855.36 992.938,1856.03 994.004,1856.9C995.048,1857.76 995.875,1858.78 996.484,1859.97C996.912,1860.81 997.198,1861.71 997.343,1862.66L992.616,1862.66C992.455,1862.15 992.235,1861.67 991.956,1861.22C991.501,1860.48 990.919,1859.84 990.208,1859.32C989.519,1858.81 988.722,1858.42 987.813,1858.14C986.934,1857.87 985.976,1857.73 984.94,1857.73C983.961,1857.73 983.051,1857.86 982.21,1858.1C981.332,1858.35 980.572,1858.7 979.926,1859.16C979.234,1859.64 978.695,1860.22 978.302,1860.9C977.886,1861.61 977.677,1862.38 977.677,1863.22C977.677,1864.51 978.156,1865.65 979.139,1866.62C979.981,1867.45 981.339,1868.2 983.246,1868.79L986.856,1869.91C988.267,1870.36 989.487,1870.86 990.514,1871.44C991.485,1871.98 992.292,1872.6 992.929,1873.29C993.535,1873.95 993.983,1874.69 994.272,1875.51C994.572,1876.36 994.718,1877.31 994.718,1878.35C994.718,1879.9 994.408,1881.31 993.778,1882.59C993.148,1883.86 992.259,1884.95 991.114,1885.86C989.937,1886.79 988.522,1887.5 986.874,1888.01C985.181,1888.53 983.307,1888.79 981.254,1888.79C979.377,1888.79 977.661,1888.56 976.105,1888.08C974.592,1887.62 973.28,1886.97 972.175,1886.12C971.1,1885.29 970.249,1884.27 969.621,1883.07C969.165,1882.19 968.849,1881.23 968.669,1880.19L973.545,1880.19Z" style="fill:rgb(49,109,230);"/>
            <path d="M1007.72,1879.01C1007.85,1879.78 1008.12,1880.46 1008.55,1881.07C1008.97,1881.68 1009.5,1882.2 1010.15,1882.64C1010.79,1883.07 1011.53,1883.4 1012.36,1883.64C1013.19,1883.87 1014.08,1883.99 1015.04,1883.99C1016.03,1883.99 1016.94,1883.88 1017.76,1883.66C1018.59,1883.44 1019.29,1883.13 1019.88,1882.72C1020.46,1882.32 1020.92,1881.83 1021.24,1881.26C1021.57,1880.69 1021.73,1880.06 1021.73,1879.38C1021.73,1878.87 1021.63,1878.41 1021.44,1877.99C1021.24,1877.56 1020.94,1877.17 1020.52,1876.8C1020.11,1876.43 1019.56,1876.09 1018.89,1875.78C1018.21,1875.46 1017.4,1875.15 1016.46,1874.86L1012.8,1873.71C1011.49,1873.31 1010.34,1872.79 1009.32,1872.16C1008.3,1871.54 1007.45,1870.82 1006.75,1870C1006.06,1869.19 1005.53,1868.29 1005.17,1867.29C1004.8,1866.3 1004.62,1865.23 1004.62,1864.09C1004.62,1862.48 1004.97,1860.99 1005.67,1859.63C1006.37,1858.26 1007.34,1857.08 1008.57,1856.1C1009.81,1855.11 1011.27,1854.34 1012.97,1853.78C1014.66,1853.22 1016.5,1852.94 1018.49,1852.94C1020.42,1852.94 1022.2,1853.2 1023.82,1853.74C1025.44,1854.28 1026.84,1855.03 1028.01,1855.99C1029.18,1856.95 1030.11,1858.1 1030.79,1859.43C1031.47,1860.77 1031.84,1862.24 1031.89,1863.85L1024.93,1863.85C1024.82,1863.12 1024.57,1862.45 1024.2,1861.84C1023.82,1861.23 1023.34,1860.7 1022.76,1860.27C1022.17,1859.84 1021.49,1859.51 1020.72,1859.27C1019.95,1859.04 1019.1,1858.92 1018.19,1858.92C1017.33,1858.92 1016.53,1859.02 1015.79,1859.24C1015.05,1859.45 1014.4,1859.74 1013.86,1860.13C1013.31,1860.51 1012.89,1860.97 1012.58,1861.49C1012.27,1862.02 1012.11,1862.6 1012.11,1863.22C1012.11,1864.19 1012.48,1865.05 1013.22,1865.78C1013.96,1866.51 1015.17,1867.14 1016.85,1867.66L1020.46,1868.78C1021.96,1869.25 1023.25,1869.79 1024.34,1870.4C1025.43,1871.02 1026.34,1871.71 1027.05,1872.49C1027.77,1873.27 1028.3,1874.15 1028.64,1875.12C1028.98,1876.09 1029.15,1877.16 1029.15,1878.35C1029.15,1880.09 1028.8,1881.68 1028.09,1883.11C1027.38,1884.55 1026.39,1885.77 1025.1,1886.79C1023.82,1887.8 1022.27,1888.59 1020.48,1889.14C1018.68,1889.7 1016.69,1889.97 1014.5,1889.97C1012.5,1889.97 1010.67,1889.72 1009.01,1889.22C1007.35,1888.71 1005.92,1887.99 1004.7,1887.06C1003.49,1886.12 1002.53,1884.97 1001.82,1883.61C1001.11,1882.25 1000.7,1880.72 1000.59,1879.01L1007.72,1879.01Z" style="fill:rgb(49,109,230);fill-rule:nonzero;"/>
            <path d="M1008.89,1878.81L1008.72,1877.83L999.323,1877.83L999.408,1879.09C999.533,1880.97 999.992,1882.66 1000.77,1884.16C1001.56,1885.67 1002.63,1886.95 1003.98,1887.99C1005.3,1889.01 1006.86,1889.8 1008.67,1890.35C1010.43,1890.88 1012.38,1891.16 1014.5,1891.16C1016.81,1891.16 1018.92,1890.86 1020.82,1890.28C1022.77,1889.67 1024.44,1888.82 1025.84,1887.72C1027.26,1886.59 1028.37,1885.23 1029.15,1883.64C1029.94,1882.05 1030.34,1880.29 1030.34,1878.35C1030.34,1877.02 1030.14,1875.81 1029.76,1874.72C1029.36,1873.6 1028.75,1872.59 1027.93,1871.69C1027.13,1870.83 1026.13,1870.05 1024.92,1869.37C1023.77,1868.73 1022.4,1868.15 1020.82,1867.65L1017.2,1866.53C1015.75,1866.08 1014.7,1865.57 1014.06,1864.94C1013.56,1864.44 1013.3,1863.87 1013.3,1863.22C1013.3,1862.81 1013.4,1862.44 1013.6,1862.09C1013.83,1861.7 1014.14,1861.38 1014.54,1861.1C1014.98,1860.78 1015.51,1860.55 1016.11,1860.37C1016.75,1860.19 1017.45,1860.1 1018.19,1860.1C1018.98,1860.1 1019.71,1860.2 1020.37,1860.4C1021.01,1860.6 1021.57,1860.87 1022.06,1861.23C1022.52,1861.57 1022.89,1861.98 1023.19,1862.45C1023.48,1862.93 1023.67,1863.46 1023.76,1864.03L1023.92,1865.03L1033.11,1865.03L1033.07,1863.81C1033.02,1862.02 1032.61,1860.38 1031.84,1858.89C1031.09,1857.41 1030.06,1856.14 1028.76,1855.07C1027.48,1854.03 1025.96,1853.2 1024.19,1852.62C1022.46,1852.04 1020.56,1851.75 1018.49,1851.75C1016.37,1851.75 1014.4,1852.06 1012.59,1852.65C1010.76,1853.26 1009.18,1854.11 1007.84,1855.17C1006.46,1856.26 1005.39,1857.57 1004.61,1859.09C1003.83,1860.62 1003.43,1862.29 1003.43,1864.09C1003.43,1865.38 1003.64,1866.58 1004.06,1867.7C1004.47,1868.83 1005.07,1869.85 1005.85,1870.77C1006.62,1871.67 1007.57,1872.48 1008.7,1873.17C1009.79,1873.85 1011.04,1874.4 1012.44,1874.84L1016.11,1875.99C1016.99,1876.27 1017.75,1876.55 1018.38,1876.85C1018.94,1877.11 1019.4,1877.39 1019.74,1877.69C1020.02,1877.94 1020.23,1878.2 1020.36,1878.48C1020.49,1878.75 1020.55,1879.05 1020.55,1879.38C1020.55,1879.85 1020.44,1880.28 1020.22,1880.67C1019.98,1881.09 1019.63,1881.45 1019.2,1881.75C1018.72,1882.08 1018.14,1882.34 1017.46,1882.52C1016.73,1882.71 1015.92,1882.81 1015.04,1882.81C1014.2,1882.81 1013.41,1882.7 1012.68,1882.5C1011.98,1882.3 1011.35,1882.02 1010.81,1881.65C1010.29,1881.31 1009.86,1880.89 1009.52,1880.4C1009.2,1879.93 1008.99,1879.4 1008.89,1878.81ZM1006.8,1880.19C1006.98,1880.75 1007.24,1881.27 1007.58,1881.75C1008.08,1882.48 1008.72,1883.1 1009.49,1883.62C1010.23,1884.12 1011.08,1884.5 1012.03,1884.78C1012.96,1885.04 1013.97,1885.18 1015.04,1885.18C1016.15,1885.18 1017.16,1885.05 1018.07,1884.81C1019.04,1884.55 1019.86,1884.17 1020.55,1883.69C1021.29,1883.18 1021.86,1882.56 1022.27,1881.84C1022.7,1881.1 1022.92,1880.27 1022.92,1879.38C1022.92,1878.69 1022.78,1878.06 1022.51,1877.49C1022.25,1876.93 1021.86,1876.4 1021.31,1875.91C1020.82,1875.48 1020.18,1875.08 1019.39,1874.7C1018.67,1874.37 1017.81,1874.04 1016.81,1873.73L1013.15,1872.58C1011.95,1872.21 1010.88,1871.73 1009.94,1871.15C1009.03,1870.6 1008.27,1869.96 1007.66,1869.24C1007.06,1868.53 1006.6,1867.74 1006.28,1866.88C1005.96,1866.02 1005.8,1865.09 1005.8,1864.09C1005.8,1862.68 1006.11,1861.37 1006.72,1860.17C1007.35,1858.95 1008.21,1857.9 1009.31,1857.03C1010.44,1856.12 1011.79,1855.42 1013.34,1854.9C1014.92,1854.38 1016.63,1854.12 1018.49,1854.12C1020.29,1854.12 1021.94,1854.37 1023.45,1854.87C1024.92,1855.36 1026.19,1856.03 1027.26,1856.9C1028.3,1857.76 1029.13,1858.78 1029.74,1859.97C1030.16,1860.81 1030.45,1861.71 1030.6,1862.66L1025.87,1862.66C1025.71,1862.15 1025.49,1861.67 1025.21,1861.22C1024.75,1860.48 1024.17,1859.84 1023.46,1859.32C1022.77,1858.81 1021.97,1858.42 1021.07,1858.14C1020.19,1857.87 1019.23,1857.73 1018.19,1857.73C1017.21,1857.73 1016.3,1857.86 1015.46,1858.1C1014.58,1858.35 1013.82,1858.7 1013.18,1859.16C1012.49,1859.64 1011.95,1860.22 1011.55,1860.9C1011.14,1861.61 1010.93,1862.38 1010.93,1863.22C1010.93,1864.51 1011.41,1865.65 1012.39,1866.62C1013.23,1867.45 1014.59,1868.2 1016.5,1868.79L1020.11,1869.91C1021.52,1870.36 1022.74,1870.86 1023.77,1871.44C1024.74,1871.98 1025.54,1872.6 1026.18,1873.29C1026.79,1873.95 1027.24,1874.69 1027.52,1875.51C1027.82,1876.36 1027.97,1877.31 1027.97,1878.35C1027.97,1879.9 1027.66,1881.31 1027.03,1882.59C1026.4,1883.86 1025.51,1884.95 1024.37,1885.86C1023.19,1886.79 1021.77,1887.5 1020.13,1888.01C1018.43,1888.53 1016.56,1888.79 1014.5,1888.79C1012.63,1888.79 1010.91,1888.56 1009.36,1888.08C1007.84,1887.62 1006.53,1886.97 1005.43,1886.12C1004.35,1885.29 1003.5,1884.27 1002.87,1883.07C1002.42,1882.19 1002.1,1881.23 1001.92,1880.19L1006.8,1880.19Z" style="fill:rgb(49,109,230);"/>
            <g transform="matrix(0.37902,0,0,0.37902,867.195,1312.9)">
                <g>
                    <path d="M435.341,1523.4L456.472,1424.09L482.451,1424.09L474.399,1461.58L509.747,1461.58L517.827,1423.95L543.795,1423.95L522.66,1523.29L496.62,1523.29L497.428,1519.51L504.929,1484.45L469.581,1484.45L461.247,1523.4L435.341,1523.4L475.132,1523.4L438.781,1566.99L420.704,1523.4L435.341,1523.4ZM540.291,1380.37L558.368,1423.95L503.94,1423.95L540.291,1380.37Z" style="fill:rgb(49,109,230);fill-rule:nonzero;"/>
                </g>
            </g>
            <path d="M1072.86,1889.07L1080.35,1853.84L1103.42,1853.84L1102.13,1860.14L1086.48,1860.14L1084.45,1869.32L1098.73,1869.32L1097.49,1875.35L1083.21,1875.35L1080.28,1889.07L1072.86,1889.07Z" style="fill:rgb(49,109,230);fill-rule:nonzero;"/>
            <path d="M1079.39,1852.65L1071.39,1890.25L1081.24,1890.25L1084.16,1876.53L1098.45,1876.53L1100.19,1868.13L1085.93,1868.13L1087.43,1861.32L1103.09,1861.32L1104.87,1852.65L1079.39,1852.65ZM1074.32,1887.88L1081.31,1855.02L1101.97,1855.02L1101.16,1858.95L1085.53,1858.95L1082.98,1870.5L1097.28,1870.5L1096.52,1874.16L1082.25,1874.16L1079.32,1887.88L1074.32,1887.88Z" style="fill:rgb(49,109,230);"/>
            <path d="M1110.31,1879.01C1110.44,1879.78 1110.71,1880.46 1111.14,1881.07C1111.56,1881.68 1112.09,1882.2 1112.74,1882.64C1113.38,1883.07 1114.12,1883.4 1114.94,1883.64C1115.78,1883.87 1116.67,1883.99 1117.63,1883.99C1118.62,1883.99 1119.53,1883.88 1120.35,1883.66C1121.17,1883.44 1121.88,1883.13 1122.46,1882.72C1123.05,1882.32 1123.51,1881.83 1123.83,1881.26C1124.16,1880.69 1124.32,1880.06 1124.32,1879.38C1124.32,1878.87 1124.22,1878.41 1124.03,1877.99C1123.83,1877.56 1123.53,1877.17 1123.11,1876.8C1122.7,1876.43 1122.15,1876.09 1121.48,1875.78C1120.8,1875.46 1119.99,1875.15 1119.05,1874.86L1115.38,1873.71C1114.08,1873.31 1112.92,1872.79 1111.9,1872.16C1110.89,1871.54 1110.03,1870.82 1109.34,1870C1108.65,1869.19 1108.12,1868.29 1107.76,1867.29C1107.39,1866.3 1107.21,1865.23 1107.21,1864.09C1107.21,1862.48 1107.56,1860.99 1108.26,1859.63C1108.95,1858.26 1109.92,1857.08 1111.16,1856.1C1112.4,1855.11 1113.86,1854.34 1115.56,1853.78C1117.25,1853.22 1119.09,1852.94 1121.07,1852.94C1123.01,1852.94 1124.79,1853.2 1126.41,1853.74C1128.03,1854.28 1129.42,1855.03 1130.59,1855.99C1131.77,1856.95 1132.69,1858.1 1133.38,1859.43C1134.06,1860.77 1134.43,1862.24 1134.48,1863.85L1127.52,1863.85C1127.4,1863.12 1127.16,1862.45 1126.79,1861.84C1126.41,1861.23 1125.93,1860.7 1125.35,1860.27C1124.76,1859.84 1124.08,1859.51 1123.31,1859.27C1122.53,1859.04 1121.69,1858.92 1120.78,1858.92C1119.92,1858.92 1119.12,1859.02 1118.38,1859.24C1117.63,1859.45 1116.99,1859.74 1116.45,1860.13C1115.9,1860.51 1115.47,1860.97 1115.16,1861.49C1114.86,1862.02 1114.7,1862.6 1114.7,1863.22C1114.7,1864.19 1115.07,1865.05 1115.81,1865.78C1116.55,1866.51 1117.76,1867.14 1119.44,1867.66L1123.05,1868.78C1124.55,1869.25 1125.84,1869.79 1126.93,1870.4C1128.02,1871.02 1128.93,1871.71 1129.64,1872.49C1130.36,1873.27 1130.89,1874.15 1131.23,1875.12C1131.57,1876.09 1131.74,1877.16 1131.74,1878.35C1131.74,1880.09 1131.39,1881.68 1130.68,1883.11C1129.97,1884.55 1128.98,1885.77 1127.69,1886.79C1126.4,1887.8 1124.86,1888.59 1123.06,1889.14C1121.26,1889.7 1119.27,1889.97 1117.09,1889.97C1115.09,1889.97 1113.26,1889.72 1111.6,1889.22C1109.94,1888.71 1108.5,1887.99 1107.29,1887.06C1106.08,1886.12 1105.12,1884.97 1104.41,1883.61C1103.7,1882.25 1103.29,1880.72 1103.18,1879.01L1110.31,1879.01Z" style="fill:rgb(49,109,230);fill-rule:nonzero;"/>
            <path d="M1111.47,1878.81L1111.31,1877.83L1101.91,1877.83L1102,1879.09C1102.12,1880.97 1102.58,1882.66 1103.36,1884.16C1104.15,1885.67 1105.22,1886.95 1106.57,1887.99C1107.89,1889.01 1109.45,1889.8 1111.26,1890.35C1113.02,1890.88 1114.97,1891.16 1117.09,1891.16C1119.4,1891.16 1121.51,1890.86 1123.41,1890.28C1125.36,1889.67 1127.03,1888.82 1128.42,1887.72C1129.85,1886.59 1130.96,1885.23 1131.74,1883.64C1132.53,1882.05 1132.93,1880.29 1132.93,1878.35C1132.93,1877.02 1132.73,1875.81 1132.35,1874.72C1131.95,1873.6 1131.34,1872.59 1130.52,1871.69C1129.72,1870.83 1128.72,1870.05 1127.51,1869.37C1126.36,1868.73 1124.99,1868.15 1123.41,1867.65L1119.79,1866.53C1118.34,1866.08 1117.28,1865.57 1116.64,1864.94C1116.15,1864.44 1115.88,1863.87 1115.88,1863.22C1115.88,1862.81 1115.99,1862.44 1116.19,1862.09C1116.41,1861.7 1116.73,1861.38 1117.13,1861.1C1117.57,1860.78 1118.1,1860.55 1118.7,1860.37C1119.34,1860.19 1120.03,1860.1 1120.78,1860.1C1121.57,1860.1 1122.29,1860.2 1122.96,1860.4C1123.6,1860.6 1124.16,1860.87 1124.64,1861.23C1125.1,1861.57 1125.48,1861.98 1125.78,1862.45C1126.07,1862.93 1126.26,1863.46 1126.35,1864.03L1126.5,1865.03L1135.7,1865.03L1135.66,1863.81C1135.61,1862.02 1135.19,1860.38 1134.43,1858.89C1133.67,1857.41 1132.64,1856.14 1131.35,1855.07C1130.07,1854.03 1128.55,1853.2 1126.78,1852.62C1125.05,1852.04 1123.14,1851.75 1121.07,1851.75C1118.95,1851.75 1116.99,1852.06 1115.18,1852.65C1113.35,1853.26 1111.76,1854.11 1110.42,1855.17C1109.05,1856.26 1107.98,1857.57 1107.2,1859.09C1106.42,1860.62 1106.02,1862.29 1106.02,1864.09C1106.02,1865.38 1106.23,1866.58 1106.64,1867.7C1107.06,1868.83 1107.66,1869.85 1108.44,1870.77C1109.21,1871.67 1110.15,1872.48 1111.28,1873.17C1112.38,1873.85 1113.63,1874.4 1115.03,1874.84L1118.69,1875.99C1119.58,1876.27 1120.34,1876.55 1120.97,1876.85C1121.53,1877.11 1121.99,1877.39 1122.33,1877.69C1122.61,1877.94 1122.82,1878.2 1122.95,1878.48C1123.08,1878.75 1123.13,1879.05 1123.13,1879.38C1123.13,1879.85 1123.03,1880.28 1122.8,1880.67C1122.56,1881.09 1122.22,1881.45 1121.79,1881.75C1121.31,1882.08 1120.72,1882.34 1120.05,1882.52C1119.32,1882.71 1118.51,1882.81 1117.63,1882.81C1116.79,1882.81 1116,1882.7 1115.27,1882.5C1114.57,1882.3 1113.94,1882.02 1113.39,1881.65C1112.88,1881.31 1112.45,1880.89 1112.11,1880.4C1111.78,1879.93 1111.57,1879.4 1111.47,1878.81ZM1109.38,1880.19C1109.57,1880.75 1109.83,1881.27 1110.16,1881.75C1110.67,1882.48 1111.31,1883.1 1112.08,1883.62C1112.82,1884.12 1113.66,1884.5 1114.62,1884.78C1115.55,1885.04 1116.55,1885.18 1117.63,1885.18C1118.74,1885.18 1119.74,1885.05 1120.66,1884.81C1121.62,1884.55 1122.45,1884.17 1123.14,1883.69C1123.88,1883.18 1124.45,1882.56 1124.86,1881.84C1125.29,1881.1 1125.5,1880.27 1125.5,1879.38C1125.5,1878.69 1125.37,1878.06 1125.1,1877.49C1124.84,1876.93 1124.45,1876.4 1123.89,1875.91C1123.41,1875.48 1122.77,1875.08 1121.98,1874.7C1121.26,1874.37 1120.4,1874.04 1119.4,1873.73L1115.74,1872.58C1114.54,1872.21 1113.46,1871.73 1112.53,1871.15C1111.62,1870.6 1110.86,1869.96 1110.24,1869.24C1109.64,1868.53 1109.18,1867.74 1108.87,1866.88C1108.55,1866.02 1108.39,1865.09 1108.39,1864.09C1108.39,1862.68 1108.69,1861.37 1109.31,1860.17C1109.93,1858.95 1110.8,1857.9 1111.9,1857.03C1113.03,1856.12 1114.38,1855.42 1115.93,1854.9C1117.51,1854.38 1119.22,1854.12 1121.07,1854.12C1122.87,1854.12 1124.53,1854.37 1126.03,1854.87C1127.51,1855.36 1128.78,1856.03 1129.84,1856.9C1130.89,1857.76 1131.71,1858.78 1132.32,1859.97C1132.75,1860.81 1133.04,1861.71 1133.18,1862.66L1128.46,1862.66C1128.3,1862.15 1128.08,1861.67 1127.8,1861.22C1127.34,1860.48 1126.76,1859.84 1126.05,1859.32C1125.36,1858.81 1124.56,1858.42 1123.65,1858.14C1122.77,1857.87 1121.82,1857.73 1120.78,1857.73C1119.8,1857.73 1118.89,1857.86 1118.05,1858.1C1117.17,1858.35 1116.41,1858.7 1115.77,1859.16C1115.07,1859.64 1114.54,1860.22 1114.14,1860.9C1113.73,1861.61 1113.52,1862.38 1113.52,1863.22C1113.52,1864.51 1114,1865.65 1114.98,1866.62C1115.82,1867.45 1117.18,1868.2 1119.09,1868.79L1122.7,1869.91C1124.11,1870.36 1125.33,1870.86 1126.35,1871.44C1127.32,1871.98 1128.13,1872.6 1128.77,1873.29C1129.38,1873.95 1129.82,1874.69 1130.11,1875.51C1130.41,1876.36 1130.56,1877.31 1130.56,1878.35C1130.56,1879.9 1130.25,1881.31 1129.62,1882.59C1128.99,1883.86 1128.1,1884.95 1126.95,1885.86C1125.78,1886.79 1124.36,1887.5 1122.71,1888.01C1121.02,1888.53 1119.15,1888.79 1117.09,1888.79C1115.22,1888.79 1113.5,1888.56 1111.94,1888.08C1110.43,1887.62 1109.12,1886.97 1108.02,1886.12C1106.94,1885.29 1106.09,1884.27 1105.46,1883.07C1105.01,1882.19 1104.69,1881.23 1104.51,1880.19L1109.38,1880.19Z" style="fill:rgb(49,109,230);"/>
        </g>
        <g transform="matrix(0.705876,0,0,0.705876,302.603,-18.5308)">
            <path d="M367.734,274.06C359.657,274.06 353.108,281.336 353.109,290.31C353.109,290.447 353.137,290.579 353.14,290.716C353.128,291.935 353.069,293.404 353.109,294.466C353.301,299.642 354.43,303.603 355.109,308.372C356.339,318.579 357.37,327.039 356.734,334.903C356.115,337.869 353.931,340.581 351.984,342.466L351.64,348.653C342.863,349.381 334.028,350.712 325.202,352.716C287.228,361.338 254.532,380.899 229.64,407.31C228.025,406.208 225.199,404.18 224.359,403.56C221.747,403.912 219.108,404.718 215.671,402.716C209.126,398.31 203.165,392.229 195.952,384.903C192.647,381.399 190.254,378.062 186.327,374.685C185.436,373.918 184.075,372.88 183.077,372.091C180.007,369.643 176.387,368.367 172.89,368.247C168.394,368.093 164.066,369.851 161.234,373.403C156.198,379.719 157.81,389.371 164.827,394.966C164.899,395.023 164.974,395.067 165.046,395.122C166.01,395.904 167.191,396.905 168.077,397.56C172.244,400.636 176.051,402.211 180.202,404.653C188.949,410.055 196.201,414.534 201.952,419.935C204.198,422.329 204.591,426.548 204.89,428.372L209.577,432.56C184.484,470.323 172.871,516.969 179.734,564.497L173.609,566.278C171.994,568.363 169.713,571.643 167.327,572.622C159.802,574.992 151.333,575.863 141.109,576.935C136.308,577.334 132.166,577.096 127.077,578.06C125.957,578.272 124.397,578.678 123.171,578.966C123.129,578.975 123.089,578.987 123.046,578.997C122.979,579.013 122.892,579.045 122.827,579.06C114.207,581.142 108.67,589.066 110.452,596.872C112.236,604.68 120.656,609.429 129.327,607.56C129.39,607.545 129.481,607.543 129.546,607.528C129.644,607.506 129.73,607.458 129.827,607.435C131.036,607.169 132.551,606.874 133.609,606.591C138.612,605.251 142.236,603.283 146.734,601.56C156.411,598.089 164.425,595.189 172.234,594.06C175.495,593.804 178.931,596.072 180.64,597.028L187.015,595.935C201.685,641.417 232.429,678.18 271.359,701.247L268.702,707.622C269.66,710.098 270.716,713.447 270.003,715.891C267.164,723.253 262.302,731.022 256.765,739.685C254.084,743.687 251.34,746.792 248.921,751.372C248.342,752.468 247.605,754.151 247.046,755.31C243.287,763.352 246.044,772.615 253.265,776.091C260.531,779.589 269.549,775.9 273.452,767.841C273.458,767.83 273.478,767.821 273.484,767.81C273.488,767.801 273.48,767.787 273.484,767.779C274.039,766.636 274.827,765.134 275.296,764.06C277.368,759.313 278.058,755.245 279.515,750.654C283.384,740.933 285.51,730.734 290.837,724.379C292.296,722.639 294.674,721.97 297.14,721.31L300.452,715.31C334.391,728.337 372.379,731.832 410.327,723.216C418.984,721.25 427.342,718.707 435.421,715.654C436.352,717.305 438.082,720.479 438.546,721.279C441.052,722.094 443.787,722.515 446.015,725.81C450,732.619 452.726,740.674 456.046,750.404C457.503,754.995 458.224,759.063 460.296,763.81C460.768,764.892 461.552,766.415 462.109,767.56C466.003,775.645 475.051,779.346 482.327,775.841C489.547,772.363 492.307,763.101 488.546,755.06C487.987,753.902 487.219,752.218 486.64,751.122C484.22,746.543 481.477,743.468 478.796,739.466C473.259,730.804 468.666,723.608 465.827,716.247C464.64,712.451 466.028,710.09 466.952,707.622C466.399,706.987 465.214,703.402 464.515,701.716C504.972,677.828 534.813,639.695 548.827,595.654C550.72,595.951 554.009,596.533 555.077,596.747C557.277,595.297 559.299,593.404 563.265,593.716C571.073,594.845 579.088,597.746 588.765,601.216C593.263,602.939 596.886,604.939 601.89,606.279C602.947,606.562 604.462,606.826 605.671,607.091C605.768,607.115 605.854,607.162 605.952,607.185C606.018,607.199 606.108,607.202 606.171,607.216C614.843,609.083 623.265,604.337 625.046,596.528C626.827,588.721 621.292,580.796 612.671,578.716C611.417,578.431 609.639,577.947 608.421,577.716C603.332,576.752 599.19,576.99 594.39,576.591C584.165,575.52 575.696,574.648 568.171,572.278C565.103,571.088 562.92,567.437 561.859,565.935L555.952,564.216C559.015,542.062 558.189,519.005 552.89,495.935C547.541,472.65 538.089,451.354 525.484,432.591C526.999,431.214 529.86,428.68 530.671,427.935C530.908,425.311 530.704,422.559 533.421,419.653C539.172,414.253 546.424,409.774 555.171,404.372C559.323,401.93 563.161,400.355 567.327,397.278C568.27,396.583 569.556,395.481 570.546,394.685C577.561,389.088 579.177,379.436 574.14,373.122C569.103,366.808 559.343,366.213 552.327,371.81C551.329,372.601 549.974,373.632 549.077,374.403C545.151,377.781 542.726,381.118 539.421,384.622C532.209,391.948 526.247,398.06 519.702,402.466C516.866,404.117 512.712,403.546 510.827,403.435L505.265,407.403C473.546,374.143 430.36,352.878 383.859,348.747C383.729,346.798 383.558,343.276 383.515,342.216C381.611,340.394 379.311,338.839 378.734,334.903C378.097,327.039 379.16,318.579 380.39,308.372C381.069,303.603 382.197,299.642 382.39,294.466C382.434,293.289 382.363,291.582 382.359,290.31C382.358,281.336 375.811,274.059 367.734,274.06L367.734,274.06ZM349.421,387.497L345.077,464.216L344.765,464.372C344.474,471.235 338.825,476.716 331.89,476.716C329.049,476.716 326.427,475.804 324.296,474.247L324.171,474.31L261.265,429.716C280.599,410.705 305.328,396.655 333.827,390.185C339.033,389.003 344.237,388.126 349.421,387.497ZM386.077,387.497C419.351,391.589 450.122,406.656 473.702,429.747L411.202,474.06L410.984,473.966C405.436,478.018 397.62,477.012 393.296,471.591C391.525,469.37 390.595,466.759 390.484,464.122L390.421,464.091L386.077,387.497ZM238.452,458.372L295.89,509.747L295.827,510.06C301.012,514.567 301.776,522.388 297.452,527.81C295.681,530.031 293.31,531.52 290.765,532.216L290.702,532.466L217.077,553.716C213.33,519.451 221.406,486.142 238.452,458.372ZM496.609,458.403C505.143,472.236 511.605,487.685 515.452,504.435C519.253,520.983 520.207,537.502 518.64,553.466L444.64,532.153L444.577,531.841C437.951,530.03 433.878,523.289 435.421,516.528C436.053,513.759 437.523,511.416 439.515,509.685L439.484,509.528L496.609,458.403L496.609,458.403ZM355.952,513.716L379.484,513.716L394.109,531.997L388.859,554.81L367.734,564.966L346.546,554.778L341.296,531.966L355.952,513.716ZM431.39,576.278C432.39,576.228 433.385,576.318 434.359,576.497L434.484,576.341L510.64,589.216C499.494,620.529 478.167,647.656 449.671,665.81L420.109,594.403L420.202,594.278C417.487,587.968 420.204,580.569 426.452,577.56C428.052,576.789 429.723,576.363 431.39,576.278L431.39,576.278ZM303.484,576.591C309.295,576.672 314.508,580.706 315.859,586.622C316.491,589.392 316.183,592.136 315.14,594.56L315.359,594.841L286.109,665.528C258.762,647.98 236.979,621.704 225.327,589.466L300.827,576.653L300.952,576.81C301.797,576.654 302.653,576.579 303.484,576.591L303.484,576.591ZM367.265,607.56C369.289,607.485 371.344,607.901 373.296,608.841C375.856,610.073 377.833,612.014 379.077,614.341L379.359,614.341L416.577,681.591C411.747,683.21 406.781,684.594 401.702,685.747C373.238,692.21 344.864,690.252 319.171,681.497L356.296,614.372L356.359,614.372C358.586,610.208 362.811,607.723 367.265,607.56Z" style="fill:rgb(39,66,119);fill-rule:nonzero;stroke:white;stroke-width:0.25px;"/>
        </g>
    </g>
</svg>
